<svg xmlns="http://www.w3.org/2000/svg" width="120" height="36" viewBox="0 0 120 36">
    <g fill="none">
        <path fill="#A6A6A6" d="M115.73 35.556H4.205C1.886 35.556 0 33.664 0 31.348V4.201C0 1.884 1.886 0 4.204 0H115.73C118.047 0 120 1.884 120 4.2v27.148c0 2.316-1.953 4.208-4.27 4.208z"/>
        <path fill="#000" d="M119.14 31.35c0 1.88-1.524 3.404-3.408 3.404H4.204C2.32 34.754.79 33.23.79 31.349V4.2C.791 2.32 2.32.791 4.204.791H115.73c1.885 0 3.409 1.529 3.409 3.409v27.15z"/>
        <g fill="#FFF">
            <path d="M16.114 12.252c-.026-2.864 2.346-4.258 2.454-4.323-1.343-1.958-3.425-2.226-4.156-2.247-1.749-.184-3.445 1.046-4.336 1.046-.908 0-2.28-1.028-3.758-.998-1.902.03-3.682 1.13-4.658 2.84-2.014 3.488-.512 8.612 1.418 11.43.966 1.381 2.094 2.923 3.57 2.868 1.444-.06 1.984-.92 3.727-.92 1.727 0 2.234.92 3.74.886 1.55-.025 2.526-1.387 3.457-2.78 1.116-1.582 1.564-3.14 1.582-3.22-.037-.013-3.01-1.148-3.04-4.582zM13.27 3.828c.776-.972 1.308-2.294 1.16-3.635-1.124.05-2.53.778-3.34 1.728-.717.837-1.357 2.21-1.191 3.5 1.263.095 2.56-.637 3.37-1.593z" transform="translate(10.667 5.333)"/>
        </g>
        <g fill="#FFF">
            <path d="M10.351 12.004H8.332L7.227 8.529H3.383L2.33 12.004H.364L4.172.174h2.352l3.827 11.83zM6.893 7.07l-1-3.089c-.105-.315-.304-1.058-.596-2.228H5.26C5.145 2.257 4.957 3 4.7 3.982l-.983 3.09h3.176zM20.144 7.634c0 1.45-.392 2.597-1.176 3.439-.702.75-1.574 1.123-2.615 1.123-1.124 0-1.93-.403-2.422-1.21h-.036v4.493H12V6.282c0-.912-.024-1.848-.07-2.808h1.666l.106 1.352h.036c.632-1.019 1.59-1.527 2.878-1.527 1.006 0 1.846.397 2.518 1.193.674.796 1.01 1.843 1.01 3.142zm-1.93.07c0-.831-.187-1.516-.562-2.054-.41-.562-.96-.843-1.65-.843-.468 0-.893.157-1.272.465-.38.311-.63.717-.746 1.22-.059.235-.088.427-.088.578v1.422c0 .62.19 1.144.57 1.572.381.428.875.64 1.483.64.714 0 1.27-.275 1.667-.824.398-.55.597-1.276.597-2.177zM29.955 7.634c0 1.45-.392 2.597-1.177 3.439-.702.75-1.574 1.123-2.614 1.123-1.124 0-1.931-.403-2.422-1.21h-.035v4.493h-1.895V6.282c0-.912-.024-1.848-.07-2.808h1.666l.106 1.352h.035c.631-1.019 1.59-1.527 2.879-1.527 1.005 0 1.845.397 2.519 1.193.67.796 1.008 1.843 1.008 3.142zm-1.931.07c0-.831-.188-1.516-.563-2.054-.41-.562-.958-.843-1.649-.843-.468 0-.892.157-1.272.465-.38.311-.629.717-.745 1.22-.058.235-.088.427-.088.578v1.422c0 .62.19 1.144.569 1.572.38.427.874.64 1.484.64.714 0 1.27-.275 1.667-.824.398-.55.597-1.276.597-2.177zM40.924 8.686c0 1.006-.35 1.825-1.051 2.457-.77.69-1.844 1.036-3.222 1.036-1.273 0-2.294-.246-3.066-.737l.439-1.58c.832.503 1.745.756 2.74.756.713 0 1.269-.162 1.668-.484.397-.322.596-.754.596-1.292 0-.48-.164-.885-.492-1.213-.326-.328-.871-.633-1.632-.914-2.071-.773-3.106-1.904-3.106-3.392 0-.973.363-1.77 1.09-2.39C35.61.31 36.575 0 37.782 0c1.077 0 1.97.187 2.685.562l-.474 1.545c-.667-.363-1.42-.544-2.264-.544-.667 0-1.188.164-1.561.491-.316.293-.474.649-.474 1.071 0 .468.18.854.543 1.158.316.281.89.585 1.721.913 1.018.41 1.765.89 2.246 1.439.48.547.719 1.232.719 2.05zM47.19 4.896H45.1v4.141c0 1.054.368 1.58 1.106 1.58.339 0 .62-.03.842-.088l.052 1.439c-.373.14-.864.21-1.473.21-.749 0-1.334-.229-1.756-.685-.42-.457-.632-1.223-.632-2.3V4.895h-1.244V3.472h1.244V1.91l1.861-.562v2.124h2.09v1.424zM56.614 7.668c0 1.312-.375 2.388-1.123 3.23-.785.866-1.827 1.298-3.126 1.298-1.251 0-2.248-.415-2.99-1.245-.744-.83-1.115-1.878-1.115-3.141 0-1.322.382-2.405 1.149-3.246.765-.843 1.798-1.264 3.097-1.264 1.251 0 2.258.415 3.018 1.246.728.806 1.09 1.847 1.09 3.122zm-1.966.062c0-.787-.168-1.462-.508-2.024-.398-.681-.966-1.02-1.702-1.02-.762 0-1.34.34-1.738 1.02-.34.563-.508 1.249-.508 2.06 0 .786.168 1.46.508 2.022.41.681.983 1.02 1.721 1.02.724 0 1.292-.346 1.702-1.037.349-.574.525-1.255.525-2.041zM62.774 5.14c-.187-.034-.387-.052-.597-.052-.667 0-1.182.252-1.545.756-.316.444-.474 1.006-.474 1.684v4.476h-1.894l.018-5.844c0-.983-.024-1.878-.071-2.685h1.65l.07 1.632h.052c.2-.561.516-1.013.948-1.351.422-.305.878-.457 1.37-.457.175 0 .333.012.473.034V5.14zM71.25 7.335c0 .34-.022.626-.07.86h-5.685c.022.842.297 1.487.825 1.931.48.398 1.099.597 1.86.597.841 0 1.61-.135 2.3-.404l.297 1.316c-.807.352-1.76.527-2.86.527-1.322 0-2.36-.39-3.116-1.167-.754-.778-1.132-1.823-1.132-3.133 0-1.286.351-2.357 1.055-3.211.736-.912 1.73-1.368 2.982-1.368 1.23 0 2.16.456 2.792 1.368.5.724.752 1.62.752 2.684zm-1.807-.491c.012-.562-.111-1.048-.368-1.457-.328-.527-.832-.79-1.51-.79-.62 0-1.124.256-1.509.772-.316.41-.503.901-.56 1.474h3.947z" transform="translate(37.333 16)"/>
        </g>
        <g fill="#FFF">
            <path d="M5.378 3.564c0 1.046-.314 1.833-.94 2.362-.581.488-1.406.733-2.474.733-.53 0-.984-.023-1.363-.07V.873C1.096.793 1.629.752 2.205.752c1.018 0 1.785.221 2.303.664.58.5.87 1.216.87 2.148zm-.982.025c0-.678-.18-1.198-.54-1.56-.358-.362-.883-.544-1.573-.544-.294 0-.543.02-.75.06v4.347c.114.017.324.025.629.025.713 0 1.263-.198 1.65-.594.388-.397.584-.975.584-1.734zM10.586 4.477c0 .645-.184 1.173-.552 1.587-.386.426-.897.638-1.535.638-.615 0-1.105-.203-1.47-.612-.365-.408-.547-.923-.547-1.543 0-.65.187-1.182.564-1.595.377-.413.884-.62 1.522-.62.615 0 1.11.203 1.484.611.355.397.534.909.534 1.534zm-.966.03c0-.386-.084-.718-.25-.994-.196-.334-.474-.501-.836-.501-.374 0-.658.167-.854.5-.167.277-.25.614-.25 1.012 0 .387.084.719.25.995.202.334.483.501.845.501.356 0 .635-.17.836-.51.172-.282.259-.616.259-1.002zM17.569 2.417l-1.311 4.19h-.854l-.543-1.82c-.137-.454-.25-.905-.337-1.353h-.016c-.081.46-.193.91-.337 1.354l-.577 1.82h-.863l-1.233-4.191h.957l.474 1.992c.115.471.209.92.284 1.345h.017c.07-.35.184-.797.346-1.336l.595-2h.759l.57 1.957c.137.477.25.937.336 1.38h.025c.063-.431.159-.891.285-1.38l.508-1.957h.915v-.001zM22.398 6.607h-.931v-2.4c0-.74-.281-1.11-.845-1.11-.276 0-.5.102-.673.306-.171.203-.258.443-.258.718v2.485h-.932V3.614c0-.368-.011-.767-.034-1.199h.819l.044.655h.025c.109-.203.27-.371.483-.506.252-.156.535-.235.844-.235.392 0 .717.126.976.38.321.31.482.773.482 1.388v2.51zM24.967 6.607L24.036 6.607 24.036.494 24.967.494zM30.452 4.477c0 .645-.184 1.173-.552 1.587-.386.426-.898.638-1.536.638-.616 0-1.105-.203-1.47-.612-.364-.408-.546-.923-.546-1.543 0-.65.187-1.182.564-1.595.377-.413.884-.62 1.52-.62.617 0 1.11.203 1.485.611.356.397.535.909.535 1.534zm-.968.03c0-.386-.083-.718-.25-.994-.194-.334-.473-.501-.834-.501-.375 0-.66.167-.854.5-.167.277-.25.614-.25 1.012 0 .387.084.719.25.995.202.334.482.501.845.501.356 0 .634-.17.835-.51.173-.282.258-.616.258-1.002zM34.96 6.607h-.836l-.07-.483h-.026c-.286.385-.694.578-1.224.578-.395 0-.715-.127-.956-.38-.219-.229-.328-.514-.328-.853 0-.512.213-.902.643-1.172.428-.27 1.03-.403 1.807-.397v-.078c0-.552-.29-.827-.87-.827-.414 0-.778.104-1.093.31l-.19-.612c.39-.24.871-.361 1.438-.361 1.095 0 1.645.577 1.645 1.733v1.543c0 .419.02.752.06 1zm-.967-1.44v-.646c-1.028-.018-1.541.264-1.541.844 0 .219.058.383.178.492.12.11.273.163.455.163.205 0 .396-.064.57-.193.175-.13.283-.295.323-.496.01-.046.015-.1.015-.164zM40.253 6.607h-.826l-.044-.673h-.026c-.264.512-.713.768-1.345.768-.505 0-.926-.198-1.26-.594-.332-.397-.499-.912-.499-1.544 0-.678.18-1.227.543-1.647.352-.39.782-.586 1.294-.586.562 0 .956.189 1.18.569h.018V.494h.932v4.984c0 .408.011.784.033 1.13zm-.965-1.767v-.699c0-.12-.009-.218-.026-.293-.052-.224-.165-.412-.337-.564-.173-.152-.382-.229-.623-.229-.347 0-.62.138-.82.414-.198.277-.298.63-.298 1.06 0 .415.095.751.286 1.01.202.275.474.413.814.413.306 0 .55-.115.736-.345.18-.212.268-.468.268-.767zM48.22 4.477c0 .645-.184 1.173-.552 1.587-.385.426-.896.638-1.535.638-.614 0-1.104-.203-1.47-.612-.364-.408-.547-.923-.547-1.543 0-.65.188-1.182.565-1.595.377-.413.883-.62 1.523-.62.614 0 1.109.203 1.482.611.356.397.534.909.534 1.534zm-.965.03c0-.386-.083-.718-.25-.994-.196-.334-.473-.501-.836-.501-.373 0-.658.167-.854.5-.167.277-.25.614-.25 1.012 0 .387.083.719.25.995.201.334.482.501.845.501.356 0 .636-.17.836-.51.172-.282.26-.616.26-1.002zM53.23 6.607h-.931v-2.4c0-.74-.281-1.11-.846-1.11-.276 0-.5.102-.672.306-.172.203-.258.443-.258.718v2.485h-.933V3.614c0-.368-.01-.767-.033-1.199h.818l.044.655h.025c.11-.203.272-.371.483-.506.253-.156.535-.235.845-.235.39 0 .716.126.975.38.322.31.482.773.482 1.388v2.51zM59.499 3.115h-1.026V5.15c0 .518.182.776.543.776.167 0 .306-.014.415-.043l.024.706c-.184.07-.426.104-.723.104-.368 0-.655-.112-.862-.336-.208-.224-.31-.6-.31-1.13V3.116h-.613v-.698h.612v-.768l.913-.276v1.043h1.026v.699zM64.43 6.607h-.932V4.225c0-.751-.281-1.127-.844-1.127-.432 0-.727.218-.889.653-.027.092-.043.204-.043.335v2.52h-.93V.494h.93V3.02h.018c.293-.46.713-.69 1.258-.69.386 0 .705.127.958.38.316.316.474.785.474 1.406v2.491zM69.517 4.314c0 .167-.012.307-.034.422h-2.794c.012.414.146.73.404.948.237.196.542.294.915.294.413 0 .79-.066 1.13-.198l.146.647c-.398.172-.865.258-1.407.258-.649 0-1.16-.19-1.53-.573-.371-.382-.555-.895-.555-1.539 0-.632.172-1.158.517-1.577.361-.448.85-.672 1.465-.672.603 0 1.06.224 1.37.672.25.355.373.795.373 1.318zm-.889-.241c.008-.277-.054-.515-.18-.716-.162-.258-.408-.388-.741-.388-.304 0-.552.126-.742.38-.154.201-.246.442-.276.724h1.94z" transform="translate(38.222 5.333)"/>
        </g>
    </g>
</svg>
