<svg xmlns="http://www.w3.org/2000/svg" width="120" height="36" viewBox="0 0 120 36">
    <defs>
        <linearGradient id="evu4b2s0ta" x1="61.03%" x2="26.463%" y1="4.95%" y2="71.926%">
            <stop offset="0%" stop-color="#00A0FF"/>
            <stop offset=".657%" stop-color="#00A1FF"/>
            <stop offset="26.01%" stop-color="#00BEFF"/>
            <stop offset="51.22%" stop-color="#00D2FF"/>
            <stop offset="76.04%" stop-color="#00DFFF"/>
            <stop offset="100%" stop-color="#00E3FF"/>
        </linearGradient>
        <linearGradient id="s9ymsjzrob" x1="107.63%" x2="-130.552%" y1="50%" y2="50%">
            <stop offset="0%" stop-color="#FFE000"/>
            <stop offset="40.87%" stop-color="#FFBD00"/>
            <stop offset="77.54%" stop-color="orange"/>
            <stop offset="100%" stop-color="#FF9C00"/>
        </linearGradient>
        <linearGradient id="ncp7hb1b1c" x1="86.243%" x2="-50.129%" y1="30.904%" y2="136.019%">
            <stop offset="0%" stop-color="#FF3A44"/>
            <stop offset="100%" stop-color="#C31162"/>
        </linearGradient>
        <linearGradient id="jah94bcm0d" x1="-18.811%" x2="42.085%" y1="-11.825%" y2="35.087%">
            <stop offset="0%" stop-color="#32A071"/>
            <stop offset="6.85%" stop-color="#2DA771"/>
            <stop offset="47.62%" stop-color="#15CF74"/>
            <stop offset="80.09%" stop-color="#06E775"/>
            <stop offset="100%" stop-color="#00F076"/>
        </linearGradient>
    </defs>
    <g fill="none" fill-rule="evenodd">
        <path fill="#000" fill-rule="nonzero" d="M115.554 35.41H4.446C1.996 35.41 0 33.414 0 30.983V4.426C0 1.986 1.996 0 4.446 0h111.108C118.002 0 120 1.987 120 4.426v26.557c0 2.431-1.998 4.427-4.446 4.427z"/>
        <path fill="#A6A6A6" d="M115.554.709c2.055 0 3.737 1.67 3.737 3.717v26.557c0 2.047-1.67 3.718-3.737 3.718H4.446C2.391 34.701.71 33.03.71 30.983V4.426C.709 2.38 2.379.71 4.446.71h111.108zm0-.709H4.446C1.996 0 0 1.996 0 4.426v26.557c0 2.44 1.996 4.427 4.446 4.427h111.108c2.448 0 4.446-1.987 4.446-4.427V4.426C120 1.996 118.002 0 115.554 0z"/>
        <path fill="#FFF" fill-rule="nonzero" d="M63.216 11.713c-.8 0-1.476-.28-2.01-.832-.53-.536-.826-1.276-.813-2.03 0-.807.274-1.489.812-2.03.532-.551 1.208-.832 2.01-.832.792 0 1.467.28 2.01.832.539.559.813 1.241.813 2.03-.01.807-.283 1.49-.813 2.028-.532.556-1.207.834-2.009.834zm-23.844 0c-.783 0-1.463-.275-2.02-.82-.552-.544-.832-1.23-.832-2.04s.28-1.497.832-2.04c.546-.546 1.226-.822 2.02-.822.389 0 .766.078 1.128.234.356.153.645.36.86.614l.052.064-.598.587-.062-.073c-.338-.401-.79-.598-1.389-.598-.534 0-1 .19-1.384.565-.386.378-.582.872-.582 1.47 0 .599.196 1.093.582 1.47.384.376.85.566 1.384.566.57 0 1.05-.19 1.422-.565.22-.22.358-.53.406-.92h-1.918v-.826h2.742l.01.075c.02.139.04.282.04.415 0 .761-.229 1.377-.684 1.832-.516.539-1.192.812-2.009.812zm31.703-.117h-.845l-2.59-4.143.023.746v3.395h-.846V6.108h.965l.026.042 2.435 3.903-.022-.744v-3.2h.854v5.487zm-14.212 0h-.857V6.934h-1.485v-.826h3.826v.826H56.86v4.662h.002zm-3.04 0h-.854V6.108h.854v5.488zm-4.801 0h-.855V6.934h-1.485v-.826h3.825v.826h-1.485v4.662zm-2.881-.008h-3.276v-5.48h3.276v.826h-2.42V8.44h2.184v.816H43.72v1.506h2.42v.826zm15.691-1.274c.382.382.846.574 1.384.574.555 0 1.007-.188 1.385-.574.375-.375.565-.868.565-1.462 0-.593-.19-1.088-.563-1.461-.382-.382-.848-.574-1.384-.574-.554 0-1.007.188-1.382.574-.376.375-.565.868-.565 1.461 0 .594.187 1.089.56 1.462z"/>
        <path fill="#FFF" d="M60.313 19.259c-2.086 0-3.777 1.583-3.777 3.766 0 2.164 1.702 3.766 3.777 3.766 2.087 0 3.778-1.594 3.778-3.766 0-2.183-1.691-3.766-3.778-3.766zm0 6.04c-1.14 0-2.123-.945-2.123-2.283 0-1.357.984-2.282 2.123-2.282 1.142 0 2.124.925 2.124 2.282.002 1.347-.982 2.283-2.124 2.283zm-8.24-6.04c-2.087 0-3.778 1.583-3.778 3.766 0 2.164 1.702 3.766 3.778 3.766 2.086 0 3.777-1.594 3.777-3.766 0-2.183-1.693-3.766-3.777-3.766zm0 6.04c-1.142 0-2.124-.945-2.124-2.283 0-1.357.984-2.282 2.124-2.282 1.14 0 2.123.925 2.123 2.282 0 1.347-.982 2.283-2.123 2.283zm-9.807-4.89v1.594h3.826c-.117.894-.413 1.554-.865 2.007-.56.56-1.426 1.17-2.952 1.17-2.35 0-4.19-1.899-4.19-4.25s1.84-4.25 4.19-4.25c1.27 0 2.195.502 2.881 1.142l1.13-1.13c-.953-.914-2.223-1.614-4.002-1.614-3.225 0-5.932 2.627-5.932 5.843 0 3.226 2.705 5.844 5.932 5.844 1.742 0 3.049-.57 4.082-1.643 1.053-1.053 1.386-2.538 1.386-3.737 0-.373-.028-.709-.088-.994h-5.4c.002-.002.002.018.002.018zm40.11 1.24c-.316-.845-1.27-2.399-3.225-2.399-1.938 0-3.55 1.526-3.55 3.766 0 2.115 1.594 3.766 3.737 3.766 1.722 0 2.725-1.053 3.137-1.67l-1.278-.857c-.424.629-1.013 1.042-1.85 1.042-.845 0-1.437-.384-1.83-1.142l5.036-2.086-.177-.42zm-5.135 1.26c-.04-1.456 1.13-2.195 1.967-2.195.66 0 1.21.324 1.398.797l-3.365 1.397zm-4.09 3.648h1.653V15.493h-1.653v11.064zm-2.716-6.461h-.06c-.372-.444-1.081-.846-1.986-.846-1.879 0-3.61 1.654-3.61 3.777 0 2.115 1.722 3.749 3.61 3.749.894 0 1.614-.404 1.987-.857h.06v.541c0 1.437-.769 2.212-2.007 2.212-1.014 0-1.643-.728-1.899-1.338l-1.437.6c.413.994 1.514 2.224 3.333 2.224 1.939 0 3.581-1.141 3.581-3.925v-6.758h-1.563v.62h-.009zm-1.898 5.203c-1.142 0-2.095-.954-2.095-2.272 0-1.329.953-2.291 2.095-2.291 1.13 0 2.006.973 2.006 2.291.011 1.318-.874 2.272-2.006 2.272zm21.581-9.806h-3.954v11.064h1.654v-4.19h2.302c1.83 0 3.63-1.326 3.63-3.433 0-2.106-1.793-3.441-3.632-3.441zm.049 5.329h-2.351v-3.797h2.35c1.24 0 1.939 1.022 1.939 1.898 0 .868-.709 1.899-1.938 1.899zm10.21-1.583c-1.201 0-2.44.532-2.952 1.691l1.466.61c.316-.61.894-.817 1.506-.817.856 0 1.722.512 1.741 1.426v.117c-.295-.168-.944-.424-1.722-.424-1.582 0-3.187.865-3.187 2.488 0 1.486 1.298 2.44 2.744 2.44 1.11 0 1.722-.502 2.104-1.083h.06v.857h1.593v-4.239c0-1.973-1.466-3.066-3.353-3.066zm-.208 6.06c-.54 0-1.298-.265-1.298-.945 0-.856.945-1.181 1.75-1.181.73 0 1.074.157 1.506.373-.119.994-.958 1.744-1.958 1.753zm9.376-5.824l-1.899 4.8h-.06l-1.966-4.8h-1.78l2.952 6.71-1.682 3.728h1.722l4.54-10.438h-1.827zM94.66 26.557h1.654V15.493H94.66v11.064z"/>
        <path fill="url(#evu4b2s0ta)" d="M9.237 6.67c-.257.275-.404.697-.404 1.249v19.574c0 .552.147.974.412 1.239l.069.06L20.28 17.823v-.245L9.305 6.609l-.068.06z"/>
        <path fill="url(#s9ymsjzrob)" d="M23.93 21.49l-3.658-3.657v-.256l3.658-3.658.08.048 4.327 2.46c1.238.697 1.238 1.85 0 2.556l-4.327 2.46-.08.048z"/>
        <path fill="url(#ncp7hb1b1c)" d="M24.01 21.442l-3.738-3.737L9.237 28.74c.404.432 1.081.48 1.838.06l12.935-7.359"/>
        <path fill="url(#jah94bcm0d)" d="M24.01 13.967L11.075 6.621c-.757-.433-1.437-.374-1.838.06l11.035 11.024 3.738-3.738z"/>
        <path fill="#000" fill-rule="nonzero" d="M23.93 21.363L11.084 28.66c-.717.413-1.357.384-1.77.009l-.069.068.069.06c.413.373 1.053.404 1.77-.009l12.935-7.347-.089-.08z" opacity=".2"/>
        <path fill="#000" fill-rule="nonzero" d="M28.337 18.855l-4.418 2.508.08.08 4.327-2.46c.62-.353.925-.817.925-1.278-.038.424-.354.825-.914 1.15z" opacity=".12"/>
        <path fill="#FFF" d="M11.075 6.749l17.262 9.806c.56.315.876.728.925 1.15 0-.462-.305-.925-.925-1.278L11.075 6.62c-1.238-.71-2.242-.117-2.242 1.298v.128c0-1.418 1.004-1.998 2.242-1.298z" opacity=".25"/>
    </g>
</svg>
